<svg width="96" height="96" viewBox="0 0 480 480" fill="none" xmlns="http://www.w3.org/2000/svg">
<path d="M342.261 284.877L351.653 195.768C351.653 188.51 349.827 182.462 346.174 177.623C342.522 172.785 336.653 170.365 328.566 170.365C320.479 170.365 313.566 173.726 307.827 180.446C302.348 186.897 298.305 195.499 295.696 206.251C293.87 221.573 291.131 244.019 287.479 273.587C283.827 302.887 281.479 321.973 280.435 330.843H228.392C247.175 166.065 258.523 64.8587 262.436 27.2257C267.914 25.0752 275.349 24 284.74 24C305.088 24 315.261 30.1826 315.261 42.5477V44.9669C310.827 87.1696 306.131 124.265 301.175 156.253C315.001 143.35 330.653 136.899 348.131 136.899C365.609 136.899 379.435 141.469 389.609 150.608C399.783 159.748 404.87 171.306 404.87 185.284C404.87 189.048 404.087 196.037 402.522 206.251C396.522 246.572 393.522 270.227 393.522 277.216C393.522 289.85 397.565 296.167 405.652 296.167C412.435 296.167 419.609 291.597 427.174 282.458C435 273.05 441.261 258.669 445.957 239.314C454.826 248.991 460.174 256.653 462 262.297C448.435 309.07 424.435 332.456 390 332.456C373.826 332.456 361.826 327.349 354 317.134C346.174 306.919 342.261 296.167 342.261 284.877Z" fill="#FF7BA9"/>
<path d="M132.434 136.899C146.782 136.899 159.956 139.318 171.956 144.157C180.043 139.049 188.521 136.496 197.391 136.496C206.26 136.496 213.304 137.705 218.521 140.125L204.434 253.83C223.738 238.508 238.347 224.53 248.26 211.896L259.608 236.492C244.738 252.62 224.912 269.824 200.13 288.103L189.565 372.374C186.695 397.642 178.608 416.996 165.304 430.436C152.26 444.145 135.304 451 114.434 451C102.434 451 90.6954 446.968 79.2172 438.904C67.2172 430.302 61.2173 416.458 61.2173 397.373C61.2173 373.987 72.0433 352.617 93.6954 333.263C75.1737 331.918 59.2607 323.989 45.9564 309.473C32.6521 294.957 26 276.007 26 252.62C26 217.407 36.0434 189.316 56.1303 168.349C76.2172 147.382 101.652 136.899 132.434 136.899ZM138.304 168.349C121.608 168.349 108.304 174.935 98.391 188.107C88.7389 201.009 82.9998 220.364 81.1737 246.169C80.9128 248.588 80.7824 250.873 80.7824 253.024C80.7824 266.195 83.7824 276.679 89.7824 284.474C96.0432 292.269 104 296.167 113.652 296.167C130.087 296.167 142.478 284.34 150.826 260.685L160.608 173.188C152.521 169.962 145.086 168.349 138.304 168.349ZM91.3476 391.325C91.3476 398.583 93.3041 404.228 97.2171 408.26C101.391 412.561 106.087 414.711 111.304 414.711C125.913 414.711 134.391 405.168 136.739 386.083L143.391 325.601C108.695 346.837 91.3476 368.745 91.3476 391.325Z" fill="#FF7BA9"/>
</svg>
